<svg width="16" height="16" viewBox="0 0 16 16" fill="none" xmlns="http://www.w3.org/2000/svg">
<rect width="16" height="16" fill="white"/>
<path fill-rule="evenodd" clip-rule="evenodd" d="M7.5 1.5C7.5 1.22386 7.72386 1 8 1C8.27614 1 8.5 1.22386 8.5 1.5V1.58271C8.5 2.11481 8.92038 2.55046 9.43417 2.68886V2.68886C9.94776 2.8272 10.5099 2.65267 10.7759 2.19203L10.817 2.12082C10.9551 1.88168 11.2609 1.79974 11.5 1.93781C11.7391 2.07588 11.8211 2.38168 11.683 2.62082L11.6415 2.69276C11.3754 3.1536 11.5128 3.73463 11.8891 4.11091V4.11091C12.2654 4.48717 12.8464 4.62457 13.3072 4.3585L13.3792 4.31696C13.6183 4.17889 13.9241 4.26082 14.0622 4.49997C14.2003 4.73912 14.1183 5.04491 13.8792 5.18298L13.808 5.22409C13.3473 5.49005 13.1728 6.05222 13.3111 6.56582V6.56582C13.4495 7.07962 13.8852 7.5 14.4173 7.5H14.5C14.7761 7.5 15 7.72386 15 8C15 8.27614 14.7761 8.5 14.5 8.5H14.4173C13.8852 8.5 13.4495 8.92037 13.3111 9.43416V9.43416C13.1728 9.94774 13.3473 10.5099 13.808 10.7758L13.8792 10.817C14.1183 10.955 14.2003 11.2608 14.0622 11.5C13.9241 11.7391 13.6183 11.8211 13.3792 11.683L13.3073 11.6415C12.8464 11.3754 12.2654 11.5128 11.8891 11.8891V11.8891C11.5128 12.2654 11.3754 12.8464 11.6415 13.3072L11.683 13.3791C11.8211 13.6183 11.7391 13.9241 11.5 14.0622C11.2609 14.2002 10.9551 14.1183 10.817 13.8791L10.7759 13.808C10.5099 13.3473 9.94777 13.1728 9.43417 13.3111V13.3111C8.92038 13.4495 8.5 13.8852 8.5 14.4173V14.5C8.5 14.7761 8.27614 15 8 15C7.72386 15 7.5 14.7761 7.5 14.5V14.4173C7.5 13.8852 7.07962 13.4495 6.56583 13.3111V13.3111C6.05223 13.1728 5.49006 13.3473 5.22411 13.808L5.18301 13.8792C5.04494 14.1183 4.73915 14.2002 4.5 14.0622C4.26085 13.9241 4.17892 13.6183 4.31699 13.3792L4.35851 13.3072C4.62457 12.8464 4.48718 12.2654 4.11091 11.8891V11.8891C3.73463 11.5128 3.15358 11.3754 2.69274 11.6415L2.62085 11.683C2.3817 11.8211 2.07591 11.7391 1.93784 11.5C1.79976 11.2608 1.8817 10.955 2.12085 10.817L2.19203 10.7759C2.65266 10.5099 2.8272 9.94775 2.68886 9.43416V9.43416C2.55046 8.92038 2.11481 8.5 1.58271 8.5H1.5C1.22386 8.5 1 8.27614 1 8C1 7.72386 1.22386 7.5 1.5 7.5H1.58269C2.1148 7.5 2.55046 7.07961 2.68886 6.56582V6.56582C2.82721 6.05221 2.65267 5.49003 2.19202 5.22408L2.12085 5.18298C1.8817 5.04491 1.79976 4.73912 1.93784 4.49997C2.07591 4.26082 2.3817 4.17889 2.62085 4.31696L2.69279 4.35849C3.15362 4.62456 3.73466 4.48717 4.11092 4.1109V4.1109C4.48719 3.73463 4.62459 3.1536 4.35852 2.69276L4.31699 2.62082C4.17891 2.38167 4.26085 2.07588 4.5 1.93781C4.73915 1.79973 5.04494 1.88167 5.18301 2.12082L5.22412 2.19203C5.49007 2.65267 6.05224 2.8272 6.56583 2.68886V2.68886C7.07962 2.55046 7.5 2.11481 7.5 1.58271V1.5Z" fill="#A7A7A7"/>
<circle cx="8" cy="8" r="3.5" fill="#C4EB67"/>
</svg>
