<svg width="16" height="16" viewBox="0 0 16 16" fill="none" xmlns="http://www.w3.org/2000/svg">
<rect width="16" height="16" fill="white"/>
<path fill-rule="evenodd" clip-rule="evenodd" d="M6.99998 2C6.99998 1.44772 7.4477 1 7.99998 1C8.55227 1 8.99998 1.44772 8.99998 2V2C8.99998 2.3422 9.24614 2.63077 9.57407 2.72855C9.93783 2.83702 10.2858 2.9821 10.6137 3.15954C10.9149 3.32253 11.2933 3.29243 11.5355 3.05026V3.05026C11.926 2.65973 12.5592 2.65973 12.9497 3.05026C13.3403 3.44078 13.3403 4.07395 12.9497 4.46447V4.46447C12.7076 4.70665 12.6775 5.08505 12.8404 5.38627C13.0179 5.71417 13.163 6.06214 13.2714 6.4259C13.3692 6.75384 13.6578 7 14 7V7C14.5523 7 15 7.44772 15 8C15 8.55228 14.5523 9 14 9V9C13.6578 9 13.3692 9.24616 13.2714 9.5741C13.163 9.93786 13.0179 10.2858 12.8404 10.6137C12.6775 10.9149 12.7075 11.2934 12.9497 11.5355V11.5355C13.3403 11.9261 13.3403 12.5592 12.9497 12.9497C12.5592 13.3403 11.926 13.3403 11.5355 12.9497V12.9497C11.2933 12.7076 10.9149 12.6775 10.6137 12.8405C10.2858 13.0179 9.93783 13.163 9.57407 13.2714C9.24614 13.3692 8.99998 13.6578 8.99998 14V14C8.99998 14.5523 8.55227 15 7.99998 15C7.4477 15 6.99998 14.5523 6.99998 14V14C6.99998 13.6578 6.75383 13.3692 6.4259 13.2714C6.06214 13.163 5.71417 13.0179 5.38627 12.8405C5.08504 12.6775 4.70663 12.7076 4.46445 12.9498V12.9498C4.07392 13.3403 3.44076 13.3403 3.05023 12.9498C2.65971 12.5592 2.65971 11.9261 3.05023 11.5355V11.5355C3.29241 11.2934 3.32251 10.9149 3.15952 10.6137C2.98208 10.2858 2.837 9.93784 2.72853 9.57407C2.63076 9.24615 2.34219 9 2 9V9C1.44772 9 1 8.55228 1 8C1 7.44772 1.44772 7 2 7V7C2.34219 7 2.63076 6.75385 2.72853 6.42593C2.837 6.06217 2.98208 5.71419 3.15952 5.38628C3.32251 5.08506 3.29241 4.70664 3.05023 4.46446V4.46446C2.65971 4.07394 2.65971 3.44077 3.05023 3.05025C3.44076 2.65972 4.07392 2.65972 4.46444 3.05025V3.05025C4.70663 3.29243 5.08504 3.32253 5.38626 3.15953C5.71417 2.9821 6.06214 2.83701 6.4259 2.72855C6.75383 2.63077 6.99998 2.3422 6.99998 2V2Z" fill="#A7A7A7"/>
<circle cx="8" cy="8" r="3.5" fill="#C4EB67"/>
</svg>
