<svg width="16" height="16" viewBox="0 0 16 16" fill="none" xmlns="http://www.w3.org/2000/svg">
<rect width="16" height="16" fill="white"/>
<circle cx="8" cy="8" r="3.5" fill="#C4EB67"/>
<rect x="4" y="6.5" width="8" height="1" fill="#2800FF"/>
<rect x="4" y="7.5" width="8" height="1" fill="#DFDFDF"/>
<rect x="4" y="8.5" width="8" height="1" fill="#FB402B"/>
<path fill-rule="evenodd" clip-rule="evenodd" d="M8 1C7.72386 1 7.5 1.22386 7.5 1.5V1.79544C7.5 2.20708 7.18387 2.5445 6.78235 2.63525C6.64325 2.66669 6.50615 2.7034 6.37126 2.74516C5.97833 2.86681 5.53624 2.73263 5.33058 2.37641L5.18301 2.12082C5.04494 1.88167 4.73915 1.79973 4.5 1.93781C4.26085 2.07588 4.17891 2.38167 4.31699 2.62082L4.46507 2.8773C4.67077 3.23359 4.56635 3.68367 4.26446 3.96316C4.16021 4.05968 4.0597 4.16019 3.96319 4.26444C3.68369 4.56633 3.23361 4.67074 2.87733 4.46504L2.62085 4.31696C2.3817 4.17889 2.07591 4.26082 1.93784 4.49997C1.79976 4.73912 1.8817 5.04491 2.12085 5.18298L2.37643 5.33054C2.73265 5.53621 2.86683 5.97829 2.74517 6.37122C2.70341 6.50612 2.66669 6.64324 2.63525 6.78235C2.5445 7.18387 2.20708 7.5 1.79544 7.5H1.5C1.22386 7.5 1 7.72386 1 8C1 8.27614 1.22386 8.5 1.5 8.5H1.79544C2.20708 8.5 2.5445 8.81613 2.63525 9.21765C2.66669 9.35675 2.7034 9.49386 2.74516 9.62875C2.86681 10.0217 2.73263 10.4637 2.37642 10.6694L2.12085 10.817C1.8817 10.955 1.79976 11.2608 1.93784 11.5C2.07591 11.7391 2.3817 11.8211 2.62085 11.683L2.87731 11.5349C3.23359 11.3292 3.68366 11.4336 3.96314 11.7355C4.05967 11.8398 4.1602 11.9403 4.26446 12.0368C4.56635 12.3163 4.67076 12.7664 4.46506 13.1227L4.31699 13.3792C4.17892 13.6183 4.26085 13.9241 4.5 14.0622C4.73915 14.2002 5.04494 14.1183 5.18301 13.8792L5.33057 13.6236C5.53623 13.2674 5.97831 13.1332 6.37124 13.2548C6.50613 13.2966 6.64324 13.3333 6.78235 13.3647C7.18387 13.4555 7.5 13.7929 7.5 14.2046V14.5C7.5 14.7761 7.72386 15 8 15C8.27614 15 8.5 14.7761 8.5 14.5V14.2046C8.5 13.7929 8.81613 13.4555 9.21765 13.3647C9.35676 13.3333 9.49387 13.2966 9.62877 13.2548C10.0217 13.1332 10.4638 13.2674 10.6694 13.6236L10.817 13.8791C10.9551 14.1183 11.2609 14.2002 11.5 14.0622C11.7391 13.9241 11.8211 13.6183 11.683 13.3791L11.5349 13.1227C11.3292 12.7664 11.4337 12.3163 11.7355 12.0368C11.8398 11.9403 11.9403 11.8398 12.0369 11.7355C12.3163 11.4336 12.7664 11.3292 13.1227 11.5349L13.3792 11.683C13.6183 11.8211 13.9241 11.7391 14.0622 11.5C14.2003 11.2608 14.1183 10.955 13.8792 10.817L13.6236 10.6694C13.2674 10.4637 13.1332 10.0217 13.2548 9.62873C13.2966 9.49384 13.3333 9.35675 13.3647 9.21765C13.4555 8.81613 13.7929 8.5 14.2046 8.5H14.5C14.7761 8.5 15 8.27614 15 8C15 7.72386 14.7761 7.5 14.5 7.5H14.2046C13.7929 7.5 13.4555 7.18387 13.3647 6.78235C13.3333 6.64324 13.2966 6.50613 13.2548 6.37124C13.1332 5.97831 13.2674 5.53622 13.6236 5.33055L13.8792 5.18298C14.1183 5.04491 14.2003 4.73912 14.0622 4.49997C13.9241 4.26082 13.6183 4.17889 13.3792 4.31696L13.1227 4.46504C12.7664 4.67075 12.3163 4.56633 12.0368 4.26444C11.9403 4.16019 11.8398 4.05968 11.7355 3.96316C11.4336 3.68367 11.3292 3.23359 11.5349 2.8773L11.683 2.62082C11.8211 2.38168 11.7391 2.07588 11.5 1.93781C11.2609 1.79974 10.9551 1.88168 10.817 2.12082L10.6694 2.37641C10.4638 2.73263 10.0217 2.86681 9.62874 2.74516C9.49386 2.7034 9.35675 2.66669 9.21765 2.63525C8.81613 2.5445 8.5 2.20708 8.5 1.79544V1.5C8.5 1.22386 8.27614 1 8 1ZM8 11.5C9.933 11.5 11.5 9.933 11.5 8C11.5 6.067 9.933 4.5 8 4.5C6.067 4.5 4.5 6.067 4.5 8C4.5 9.933 6.067 11.5 8 11.5Z" fill="#A7A7A7"/>
</svg>
