<svg width="16" height="16" viewBox="0 0 16 16" fill="none" xmlns="http://www.w3.org/2000/svg">
<rect width="16" height="16" fill="white"/>
<path fill-rule="evenodd" clip-rule="evenodd" d="M7 2C7 1.44772 7.44772 1 8 1C8.55228 1 9 1.44772 9 2V2.15581C9 2.40775 9.18292 2.62157 9.42628 2.68674V2.68674C9.66943 2.75185 9.93023 2.65673 10.0561 2.43874L10.134 2.30383C10.4101 1.82554 11.0217 1.66167 11.5 1.93781C11.9783 2.21395 12.1422 2.82554 11.866 3.30383L11.7874 3.44001C11.6615 3.65801 11.7111 3.93292 11.8891 4.11091V4.11091C12.0671 4.28891 12.342 4.33846 12.56 4.2126L12.6962 4.13398C13.1745 3.85783 13.786 4.02171 14.0622 4.5C14.3383 4.97829 14.1745 5.58988 13.6962 5.86603L13.5613 5.94392C13.3433 6.06977 13.2482 6.33057 13.3133 6.57372V6.57372C13.3784 6.81708 13.5923 7 13.8442 7H14C14.5523 7 15 7.44772 15 8C15 8.55228 14.5523 9 14 9H13.8442C13.5923 9 13.3784 9.18292 13.3133 9.42628V9.42628C13.2482 9.66943 13.3433 9.93023 13.5613 10.0561L13.6962 10.134C14.1745 10.4101 14.3383 11.0217 14.0622 11.5C13.786 11.9783 13.1745 12.1422 12.6962 11.866L12.56 11.7874C12.342 11.6615 12.0671 11.7111 11.8891 11.8891V11.8891C11.7111 12.0671 11.6616 12.342 11.7874 12.56L11.866 12.6961C12.1422 13.1744 11.9783 13.786 11.5 14.0622C11.0217 14.3383 10.4101 14.1744 10.134 13.6961L10.0561 13.5613C9.93024 13.3433 9.66944 13.2482 9.42629 13.3133V13.3133C9.18292 13.3784 9 13.5923 9 13.8442V14C9 14.5523 8.55228 15 8 15C7.44772 15 7 14.5523 7 14V13.8442C7 13.5923 6.81708 13.3784 6.57371 13.3133V13.3133C6.33056 13.2482 6.06976 13.3433 5.9439 13.5613L5.86603 13.6961C5.58989 14.1744 4.97829 14.3383 4.5 14.0622C4.02171 13.786 3.85783 13.1744 4.13398 12.6961L4.2126 12.56C4.33845 12.342 4.2889 12.0671 4.11091 11.8891V11.8891C3.93293 11.7111 3.65802 11.6616 3.44003 11.7874L3.30386 11.866C2.82557 12.1422 2.21398 11.9783 1.93784 11.5C1.66169 11.0217 1.82557 10.4101 2.30386 10.134L2.43874 10.0561C2.65674 9.93024 2.75185 9.66944 2.68674 9.42629V9.42629C2.62158 9.18292 2.40774 9 2.1558 9H2C1.44772 9 1 8.55228 1 8C1 7.44772 1.44772 7 2 7H2.1558C2.40774 7 2.62157 6.81708 2.68674 6.57371V6.57371C2.75185 6.33056 2.65673 6.06976 2.43874 5.9439L2.30386 5.86603C1.82557 5.58989 1.66169 4.97829 1.93784 4.5C2.21398 4.02171 2.82557 3.85783 3.30386 4.13398L3.44003 4.21259C3.65802 4.33845 3.93293 4.2889 4.11092 4.11091V4.11091C4.28891 3.93292 4.33846 3.65801 4.2126 3.44002L4.13397 3.30383C3.85783 2.82554 4.02171 2.21395 4.5 1.93781C4.97829 1.66166 5.58988 1.82554 5.86602 2.30383L5.94391 2.43874C6.06977 2.65673 6.33057 2.75185 6.57372 2.68674V2.68674C6.81708 2.62157 7 2.40775 7 2.15581V2Z" fill="#A7A7A7"/>
<circle cx="8" cy="8" r="3.5" fill="#C4EB67"/>
</svg>
